M48
; DRILL file {KiCad 8.0.0} date 2024-03-11T20:36:25+1000
; FORMAT={-:-/ absolute / inch / decimal}
; #@! TF.CreationDate,2024-03-11T20:36:25+10:00
; #@! TF.GenerationSoftware,Kicad,Pcbnew,8.0.0
; #@! TF.FileFunction,Plated,1,6,PTH
FMAT,2
INCH
; #@! TA.AperFunction,Plated,PTH,ViaDrill
T1C0.0079
; #@! TA.AperFunction,Plated,PTH,ComponentDrill
T2C0.0236
; #@! TA.AperFunction,Plated,PTH,ComponentDrill
T3C0.0256
; #@! TA.AperFunction,Plated,PTH,ComponentDrill
T4C0.0433
%
G90
G05
T1
X0.0827Y-2.0822
X0.1378Y-2.0949
X0.1575Y-0.8169
X0.1673Y-0.6201
X0.1673Y-0.6791
X0.1673Y-0.9449
X0.1673Y-1.0039
X0.1811Y-0.7382
X0.1831Y-0.561
X0.1831Y-0.8917
X0.185Y-1.0591
X0.189Y-0.7657
X0.189Y-0.8642
X0.2146Y-0.8051
X0.2146Y-0.8346
X0.2264Y-1.0827
X0.2362Y-0.5512
X0.2697Y-1.624
X0.2697Y-1.8169
X0.2756Y-1.0807
X0.2795Y-0.5472
X0.2953Y-1.9488
X0.2953Y-2.0079
X0.2953Y-2.0669
X0.2953Y-2.1161
X0.2972Y-0.815
X0.2992Y-1.624
X0.2992Y-1.8169
X0.3248Y-0.5512
X0.3248Y-1.0827
X0.3307Y-0.7539
X0.3386Y-0.8583
X0.3642Y-0.9646
X0.3642Y-1.0728
X0.374Y-0.561
X0.374Y-0.6594
X0.374Y-1.5591
X0.374Y-1.5984
X0.3799Y-1.7067
X0.3799Y-1.7795
X0.3819Y-0.874
X0.3839Y-1.9488
X0.3839Y-2.0079
X0.3839Y-2.0669
X0.3839Y-2.1161
X0.4035Y-0.6004
X0.4075Y-0.8012
X0.4091Y-1.0472
X0.4134Y-1.5591
X0.4154Y-1.0138
X0.4331Y-0.6378
X0.4331Y-0.6969
X0.4331Y-0.7539
X0.4331Y-0.815
X0.4331Y-0.874
X0.4331Y-0.9331
X0.4331Y-1.9567
X0.4567Y-1.5591
X0.4567Y-2.0217
X0.4567Y-2.0551
X0.4783Y-1.5591
X0.4803Y-1.7776
X0.4843Y-1.0059
X0.4941Y-1.9646
X0.4941Y-2.0028
X0.4941Y-2.0787
X0.5Y-1.5591
X0.5039Y-1.063
X0.5236Y-0.6378
X0.5236Y-0.6969
X0.5236Y-0.7717
X0.5236Y-0.7953
X0.5236Y-0.8209
X0.5236Y-0.874
X0.5236Y-0.9331
X0.5236Y-0.9921
X0.5276Y-1.4803
X0.5472Y-1.8346
X0.5512Y-1.5898
X0.5531Y-1.9232
X0.5531Y-1.9744
X0.5531Y-2.0925
X0.5663Y-0.7806
X0.5709Y-0.9094
X0.5709Y-1.0118
X0.5846Y-1.5512
X0.589Y-0.7806
X0.5906Y-0.1181
X0.5906Y-0.252
X0.5906Y-0.3937
X0.5965Y-2.0925
X0.6004Y-1.3622
X0.6004Y-1.3834
X0.6004Y-1.4035
X0.6024Y-1.2126
X0.6024Y-1.2461
X0.6063Y-0.8661
X0.6102Y-0.811
X0.6181Y-0.6417
X0.6181Y-0.6929
X0.6378Y-1.126
X0.6378Y-1.3622
X0.6378Y-1.3834
X0.6378Y-1.4035
X0.6398Y-2.0413
X0.6398Y-2.0925
X0.6417Y-0.9764
X0.6417Y-1.8346
X0.6575Y-0.7047
X0.6614Y-0.7756
X0.6693Y-1.9232
X0.6752Y-1.3622
X0.6752Y-1.3834
X0.6752Y-1.4035
X0.6886Y-1.5315
X0.6949Y-0.6654
X0.6988Y-2.013
X0.6988Y-2.0472
X0.7008Y-0.8228
X0.7008Y-0.8701
X0.7008Y-0.9173
X0.7008Y-1.9409
X0.7165Y-0.9961
X0.7323Y-0.8228
X0.7323Y-0.8701
X0.7323Y-0.9173
X0.7323Y-1.9724
X0.7343Y-0.3937
X0.7362Y-1.126
X0.7672Y-1.6791
X0.7672Y-1.7047
X0.7672Y-1.7303
X0.7672Y-1.7559
X0.7677Y-1.7815
X0.7756Y-1.4665
X0.7835Y-0.6846
X0.7866Y-0.9961
X0.7933Y-0.8306
X0.7953Y-0.7756
X0.7953Y-0.9213
X0.7953Y-0.9449
X0.8091Y-1.4665
X0.8228Y-0.7165
X0.8228Y-1.5508
X0.8425Y-0.777
X0.8465Y-0.9016
X0.8622Y-1.3465
X0.874Y-2.0
X0.8778Y-0.7177
X0.8858Y-0.3937
X0.8898Y-0.7756
X0.9016Y-0.8307
X0.9034Y-0.7183
X0.9173Y-0.8819
X0.9194Y-0.7344
X0.9213Y-0.685
X0.9252Y-0.7957
X0.9252Y-0.8184
X0.9272Y-1.4406
X0.9272Y-1.4807
X0.9386Y-1.2756
X0.9386Y-1.2362
X0.9398Y-1.315
X0.9448Y-0.7374
X0.9469Y-1.5197
X0.9469Y-1.5551
X0.9501Y-0.7861
X0.9547Y-1.7559
X0.9724Y-0.8819
X0.9744Y-1.7303
X0.9764Y-0.685
X0.9783Y-1.4621
X0.9921Y-1.7815
X1.0103Y-0.9023
X1.0118Y-0.7992
X1.0157Y-1.3725
X1.0217Y-1.5197
X1.0217Y-1.5551
X1.0305Y-0.0665
X1.0305Y-0.1067
X1.0311Y-1.7047
X1.0319Y-1.7815
X1.0335Y-0.8666
X1.0335Y-0.8893
X1.0433Y-0.685
X1.0433Y-0.7441
X1.0591Y-0.8543
X1.063Y-0.4646
X1.063Y-0.5079
X1.0837Y-0.8012
X1.1043Y-0.4272
X1.1043Y-0.5453
X1.1063Y-0.685
X1.1063Y-0.9055
X1.1122Y-1.2323
X1.1138Y-0.7598
X1.1447Y-0.8012
X1.1516Y-0.565
X1.1575Y-0.3878
X1.1654Y-0.685
X1.1654Y-0.8543
X1.1772Y-1.1575
X1.1831Y-0.611
X1.1831Y-0.6488
X1.1831Y-0.7382
X1.1885Y-0.9488
X1.2047Y-0.3878
X1.2047Y-1.7657
X1.2047Y-1.7953
X1.2047Y-1.8248
X1.2047Y-1.8543
X1.2205Y-1.1575
X1.2303Y-0.9665
X1.2343Y-1.7657
X1.2343Y-1.7953
X1.2343Y-1.8248
X1.2343Y-1.8543
X1.25Y-0.3878
X1.2638Y-1.1575
X1.2717Y-1.9173
X1.2726Y-1.7047
X1.2795Y-1.0157
X1.2913Y-1.7047
X1.2913Y-1.9173
X1.2953Y-1.002
X1.3051Y-0.4035
X1.3051Y-0.5177
X1.3061Y-0.0665
X1.311Y-0.6496
X1.311Y-1.0157
X1.311Y-1.7047
X1.311Y-1.9183
X1.313Y-0.561
X1.3268Y-0.7126
X1.3268Y-0.7913
X1.3268Y-0.8701
X1.3268Y-1.002
X1.3287Y-1.2323
X1.3346Y-0.5394
X1.3424Y-1.0159
X1.3425Y-0.4409
X1.3425Y-0.6496
X1.3445Y-0.4803
X1.349Y-0.2559
X1.349Y-0.3346
X1.3583Y-1.002
X1.374Y-1.0157
X1.376Y-2.0157
X1.3898Y-1.002
X1.4055Y-0.7126
X1.4055Y-0.7913
X1.4055Y-0.8701
X1.4094Y-0.6496
X1.4213Y-0.9272
X1.4213Y-2.1043
X1.426Y-1.2146
X1.4291Y-1.3071
X1.4291Y-1.4173
X1.436Y-0.2638
X1.437Y-1.0157
X1.4528Y-1.002
X1.4606Y-2.1417
X1.4685Y-1.0157
X1.4813Y-2.0925
X1.4843Y-0.7126
X1.4843Y-0.7913
X1.4843Y-0.8701
X1.4843Y-1.002
X1.5Y-1.0157
X1.501Y-1.3622
X1.5028Y-2.128
X1.5157Y-1.002
X1.5161Y-1.1732
X1.5236Y-0.622
X1.5266Y-0.2949
X1.5315Y-1.0157
X1.5406Y-2.128
X1.5433Y-0.9272
X1.5472Y-0.7756
X1.5472Y-1.002
X1.5673Y-1.5512
X1.5748Y-1.4173
X1.5778Y-0.2638
X1.5787Y-0.6142
X1.5817Y-0.0665
X1.5817Y-0.1067
X1.5984Y-0.9685
X1.5984Y-2.0965
X1.622Y-0.937
X1.624Y-1.9675
X1.6347Y-0.9203
X1.6496Y-1.2504
X1.6496Y-1.2953
X1.6496Y-1.4772
X1.6496Y-1.515
X1.6683Y-0.2949
X1.6831Y-1.6811
X1.6831Y-1.7982
X1.6929Y-1.3386
X1.7047Y-2.0059
X1.7195Y-0.2638
X1.748Y-1.9665
X1.75Y-2.0039
X1.7677Y-1.2766
X1.7692Y-2.0039
X1.7717Y-1.1535
X1.7746Y-1.8435
X1.7874Y-2.0039
X1.7874Y-2.3839
X1.7972Y-1.9665
X1.81Y-0.2949
X1.811Y-0.9646
X1.811Y-1.122
X1.811Y-1.5551
X1.815Y-2.4173
X1.815Y-2.4469
X1.8209Y-1.814
X1.8307Y-1.6929
X1.8307Y-1.7323
X1.8327Y-1.8799
X1.8327Y-1.9016
X1.8327Y-1.9232
X1.8396Y-1.9754
X1.8445Y-2.4173
X1.8445Y-2.4469
X1.8476Y-2.1969
X1.85Y-1.8425
X1.8504Y-1.0827
X1.8504Y-1.4764
X1.8543Y-1.8799
X1.8543Y-1.9016
X1.8543Y-1.9232
X1.8573Y-0.0665
X1.8612Y-0.2643
X1.8701Y-1.2992
X1.874Y-2.4173
X1.874Y-2.4469
X1.8839Y-2.3169
X1.8898Y-1.0039
X1.8898Y-1.0433
X1.8898Y-1.2008
X1.8898Y-1.5945
X1.9094Y-1.2598
X1.9154Y-1.7795
X1.9173Y-2.4075
X1.9173Y-2.4331
X1.9173Y-2.4587
X1.9291Y-0.9252
X1.9291Y-1.0039
X1.9291Y-1.0433
X1.9291Y-1.0827
X1.9291Y-1.2008
X1.9291Y-1.7126
X1.9488Y-1.1811
X1.9488Y-1.2992
X1.9508Y-1.8937
X1.9547Y-2.4331
X1.9685Y-1.0433
X1.9685Y-1.0827
X1.9685Y-1.122
X1.9685Y-1.2008
X1.9764Y-1.872
X1.9764Y-1.9154
X1.9882Y-1.063
X1.9882Y-1.1024
X1.9882Y-1.2197
X1.9882Y-1.6535
X1.9941Y-2.4331
X2.002Y-2.0177
X2.0079Y-1.1614
X2.0079Y-1.2795
X2.0079Y-1.5551
X2.0079Y-1.752
X2.0199Y-1.2522
X2.0236Y-1.8189
X2.0276Y-1.2205
X2.0276Y-1.6535
X2.0295Y-2.3169
X2.0335Y-2.4075
X2.0335Y-2.4331
X2.0335Y-2.4587
X2.0354Y-0.0748
X2.0394Y-2.0177
X2.0433Y-0.7047
X2.0472Y-1.2402
X2.0472Y-1.2795
X2.0472Y-1.752
X2.0657Y-2.1969
X2.0669Y-1.1417
X2.0669Y-1.378
X2.0669Y-1.6929
X2.0728Y-2.1102
X2.0728Y-2.1457
X2.0772Y-2.0177
X2.0866Y-1.0039
X2.0866Y-1.2
X2.0866Y-1.2402
X2.0866Y-1.2795
X2.0866Y-1.752
X2.0906Y-0.7283
X2.0925Y-1.872
X2.0945Y-0.0748
X2.1063Y-0.9843
X2.1063Y-1.2992
X2.1063Y-1.3386
X2.1063Y-1.378
X2.1063Y-1.6142
X2.1063Y-1.6929
X2.1102Y-0.2028
X2.1102Y-0.6004
X2.1122Y-2.1102
X2.1122Y-2.1457
X2.1122Y-2.3819
X2.1122Y-2.4075
X2.1122Y-2.4331
X2.1161Y-2.0177
X2.122Y-0.7283
X2.126Y-0.0748
X2.126Y-1.122
X2.126Y-1.752
X2.1417Y-1.872
X2.1417Y-1.9154
X2.1417Y-1.9587
X2.1457Y-1.0236
X2.1457Y-1.6142
X2.1535Y-0.7283
X2.1575Y-0.0748
X2.1646Y-0.3622
X2.165Y-0.4409
X2.1654Y-1.122
X2.1654Y-1.1614
X2.1654Y-1.2008
X2.1654Y-1.2402
X2.1654Y-1.7126
X2.1661Y-0.2835
X2.1661Y-0.5197
X2.1811Y-1.8504
X2.185Y-0.7283
X2.185Y-1.6929
X2.185Y-1.7323
X2.189Y-0.0748
X2.1909Y-2.4331
X2.1949Y-1.7913
X2.1969Y-1.9094
X2.1969Y-1.9675
X2.2047Y-0.9646
X2.2047Y-1.0827
X2.2047Y-1.122
X2.2047Y-1.1614
X2.2047Y-1.2008
X2.2047Y-1.2402
X2.2047Y-1.3189
X2.2047Y-1.3976
X2.2047Y-1.437
X2.2047Y-1.4764
X2.2047Y-1.5157
X2.2047Y-1.5551
X2.2047Y-1.5945
X2.2047Y-1.6339
X2.2087Y-2.0512
X2.2244Y-1.6142
X2.2323Y-2.0906
X2.2362Y-0.2598
X2.2402Y-0.0748
X2.2402Y-0.3976
X2.2402Y-0.5354
X2.2402Y-0.7283
X2.2441Y-1.122
X2.2441Y-1.2008
X2.2441Y-1.2402
X2.2441Y-1.2795
X2.2441Y-1.3189
X2.2441Y-1.3583
X2.2441Y-1.437
X2.2441Y-1.4764
X2.2441Y-1.5551
X2.2441Y-1.7134
X2.2441Y-1.7512
X2.2539Y-1.7913
X2.2539Y-1.8602
X2.2539Y-1.9291
X2.2539Y-2.1358
X2.2559Y-1.9961
X2.2717Y-0.3465
X2.2717Y-0.4567
X2.2736Y-2.185
X2.2835Y-1.122
X2.2835Y-1.2008
X2.2835Y-1.2402
X2.2835Y-1.3189
X2.2835Y-1.3976
X2.2835Y-1.437
X2.2835Y-1.4764
X2.2835Y-1.5157
X2.2835Y-1.5551
X2.2835Y-1.5945
X2.3071Y-2.0394
X2.3071Y-2.0945
X2.3071Y-2.3189
X2.311Y-2.4075
X2.311Y-2.4331
X2.311Y-2.4587
X2.313Y-1.8602
X2.313Y-1.9783
X2.313Y-2.2244
X2.3228Y-0.9252
X2.3228Y-1.0039
X2.3228Y-1.0433
X2.3228Y-1.122
X2.3228Y-1.1614
X2.3228Y-1.2008
X2.3228Y-1.2402
X2.3228Y-1.2795
X2.3228Y-1.437
X2.3228Y-1.5551
X2.3228Y-1.5945
X2.3228Y-1.7126
X2.3327Y-1.9193
X2.3386Y-0.2638
X2.3386Y-0.5394
X2.3425Y-0.1348
X2.3425Y-0.6683
X2.3425Y-1.6142
X2.3504Y-0.3701
X2.3504Y-0.4331
X2.3524Y-2.1358
X2.3622Y-1.122
X2.3622Y-1.1614
X2.3622Y-1.2008
X2.3622Y-1.3189
X2.3622Y-1.3976
X2.3622Y-1.4764
X2.3622Y-1.5945
X2.3622Y-1.6732
X2.3626Y-0.2402
X2.3626Y-0.5669
X2.372Y-1.8898
X2.372Y-1.9685
X2.372Y-2.0472
X2.374Y-1.8189
X2.3819Y-0.4016
X2.3819Y-1.2598
X2.4012Y-0.2402
X2.4012Y-0.5669
X2.4016Y-0.9646
X2.4016Y-1.1614
X2.4016Y-1.2008
X2.4016Y-1.3583
X2.4016Y-1.3976
X2.4016Y-1.437
X2.4016Y-1.4764
X2.4016Y-1.5157
X2.4016Y-1.5945
X2.4016Y-1.6339
X2.4016Y-1.6732
X2.4114Y-2.185
X2.4134Y-0.3701
X2.4134Y-0.4331
X2.4173Y-1.7835
X2.4173Y-1.8622
X2.4213Y-0.1348
X2.4213Y-0.6683
X2.4252Y-0.2638
X2.4252Y-0.5394
X2.4291Y-2.0984
X2.4311Y-1.9783
X2.4311Y-2.0276
X2.4311Y-2.2343
X2.4409Y-1.2795
X2.4409Y-1.6339
X2.4409Y-1.6732
X2.4409Y-1.7126
X2.4409Y-1.752
X2.4469Y-2.4075
X2.4469Y-2.4331
X2.4469Y-2.4587
X2.4606Y-0.9055
X2.4606Y-1.1024
X2.4606Y-1.2205
X2.4606Y-1.2992
X2.4606Y-1.4961
X2.4606Y-1.5748
X2.4606Y-1.8307
X2.4646Y-2.1457
X2.4724Y-1.9173
X2.4803Y-0.9252
X2.4803Y-1.0039
X2.4803Y-1.2402
X2.4803Y-1.2795
X2.4803Y-1.3197
X2.4803Y-1.3583
X2.4803Y-1.3976
X2.4803Y-1.6339
X2.4803Y-1.6732
X2.4882Y-2.0709
X2.4921Y-0.3465
X2.4921Y-0.4567
X2.4951Y-0.7992
X2.4961Y-1.5354
X2.4961Y-1.5748
X2.5Y-0.9055
X2.5Y-1.1024
X2.5Y-1.2205
X2.5Y-1.6142
X2.5008Y-1.1811
X2.5039Y-2.1811
X2.5079Y-0.4016
X2.5118Y-1.815
X2.5197Y-0.9252
X2.5197Y-1.2402
X2.5197Y-1.2795
X2.5197Y-1.3583
X2.5197Y-1.437
X2.5197Y-1.4764
X2.5197Y-1.6339
X2.5197Y-1.6732
X2.5197Y-1.7126
X2.5197Y-1.752
X2.5236Y-0.0748
X2.5236Y-0.7283
X2.5276Y-1.9724
X2.5354Y-0.2598
X2.5354Y-0.5433
X2.5354Y-2.1142
X2.5386Y-1.1811
X2.5394Y-1.1417
X2.5394Y-1.2205
X2.5394Y-1.378
X2.5394Y-1.4173
X2.5394Y-1.5354
X2.5394Y-1.5748
X2.5453Y-2.4075
X2.5453Y-2.4331
X2.5453Y-2.4587
X2.5455Y-1.2992
X2.5472Y-1.878
X2.5472Y-2.2283
X2.5472Y-2.315
X2.5591Y-1.0433
X2.5591Y-1.4764
X2.5591Y-1.5157
X2.5591Y-1.5551
X2.5591Y-1.6732
X2.5591Y-1.7126
X2.5591Y-1.752
X2.5748Y-0.7283
X2.5787Y-0.0748
X2.5787Y-1.1417
X2.5787Y-1.378
X2.5787Y-1.4173
X2.5787Y-1.4961
X2.5787Y-1.5748
X2.5787Y-1.6142
X2.5787Y-2.0236
X2.5827Y-1.8071
X2.5827Y-2.1654
X2.5976Y-0.3031
X2.5976Y-0.5
X2.5984Y-0.9646
X2.5984Y-1.3583
X2.5984Y-1.752
X2.5984Y-1.9016
X2.5988Y-0.3425
X2.5988Y-0.3819
X2.5988Y-0.4213
X2.5988Y-0.4606
X2.6063Y-0.7283
X2.6102Y-0.0748
X2.6181Y-1.378
X2.6181Y-1.4173
X2.6181Y-1.6535
X2.6181Y-1.9567
X2.6191Y-0.7992
X2.622Y-2.2087
X2.6339Y-2.0787
X2.6378Y-0.7283
X2.6378Y-1.0827
X2.6378Y-1.2795
X2.6378Y-1.4764
X2.6378Y-1.6732
X2.6417Y-0.0748
X2.6437Y-2.4075
X2.6437Y-2.4331
X2.6437Y-2.4587
X2.6535Y-0.2028
X2.6535Y-0.6004
X2.6535Y-1.878
X2.6614Y-1.4173
X2.6654Y-0.9764
X2.6693Y-0.7283
X2.6693Y-1.2795
X2.6703Y-1.1024
X2.6732Y-0.0748
X2.6772Y-1.9764
X2.6929Y-1.2874
X2.6969Y-2.0315
X2.7008Y-2.2126
X2.7047Y-0.8976
X2.7047Y-1.0148
X2.7047Y-1.2677
X2.7047Y-1.6811
X2.7047Y-1.7992
X2.7087Y-1.9291
X2.7156Y-0.7992
X2.7224Y-2.4075
X2.7224Y-2.4331
X2.7224Y-2.4587
X2.7244Y-0.0748
X2.7283Y-0.7283
X2.7283Y-2.1732
X2.7313Y-1.1024
X2.748Y-1.3701
X2.7559Y-1.3071
X2.7598Y-1.9803
X2.7598Y-2.0591
X2.7638Y-1.5118
X2.7717Y-1.2126
X2.7795Y-2.2244
X2.7835Y-2.1102
X2.7874Y-1.2913
X2.7874Y-1.3858
X2.7874Y-1.4488
X2.7992Y-1.6821
X2.7992Y-1.7982
X2.8012Y-2.4075
X2.8012Y-2.4331
X2.8012Y-2.4587
X2.8031Y-1.2126
X2.8031Y-1.2756
X2.8031Y-1.5276
X2.811Y-2.0315
X2.8189Y-1.3858
X2.8189Y-1.4488
X2.8189Y-1.5118
X2.8264Y-0.8701
X2.8264Y-0.9094
X2.8276Y-0.9488
X2.8346Y-1.2126
X2.8346Y-1.2756
X2.8346Y-1.3071
X2.8425Y-1.7323
X2.8465Y-2.1457
X2.8504Y-1.2913
X2.8504Y-1.3858
X2.8504Y-1.4488
X2.8504Y-1.4803
X2.8543Y-2.1969
X2.8654Y-0.9488
X2.8701Y-1.2756
X2.8701Y-2.0827
X2.874Y-1.3189
X2.8799Y-2.4075
X2.8799Y-2.4331
X2.8799Y-2.4587
X2.8829Y-1.122
X2.8858Y-1.3667
X2.8858Y-1.4299
X2.8858Y-1.4677
X2.8976Y-1.6496
X2.8976Y-1.7657
X2.8976Y-1.815
X2.9252Y-2.1417
X2.9409Y-1.6496
X2.9409Y-1.815
X2.9413Y-0.9094
X2.9413Y-0.9488
X2.9429Y-1.4075
X2.9439Y-1.122
X2.9449Y-1.5394
X2.9488Y-1.3189
X2.9587Y-2.4075
X2.9587Y-2.4331
X2.9587Y-2.4587
X2.9685Y-2.2677
X2.9764Y-1.2283
X2.9764Y-1.2598
X2.9882Y-1.6496
X2.9882Y-1.815
X2.9921Y-1.1811
X2.9921Y-1.3071
X2.9961Y-2.2205
X3.0079Y-1.1969
X3.0079Y-1.2283
X3.0079Y-1.3228
X3.0079Y-1.3543
X3.0236Y-1.1811
X3.0236Y-1.3071
X3.0374Y-2.4075
X3.0374Y-2.4331
X3.0374Y-2.4587
X3.0394Y-1.2598
X3.0394Y-1.4173
X3.0394Y-1.4803
X3.0433Y-1.7134
X3.0433Y-1.7512
X3.0551Y-2.3189
X3.0561Y-2.373
X3.063Y-1.1811
X3.0965Y-2.4075
X3.0965Y-2.4331
X3.0965Y-2.4587
T3
X0.7864Y-2.0866
X0.8364Y-2.0866
X0.8864Y-2.0866
X0.9364Y-2.0866
X0.9864Y-2.0866
X1.0364Y-2.0866
X1.0864Y-2.0866
X1.1364Y-2.0866
X1.1864Y-2.0866
X1.2364Y-2.0866
T4
X0.2488Y-1.1717
X0.2488Y-1.3717
X0.4488Y-1.1717
X0.4488Y-1.2717
X0.4488Y-1.3717
T2
G00X0.0992Y-0.6449
M15
G01X0.0402Y-0.6449
M16
G05
G00X0.0992Y-0.985
M15
G01X0.0402Y-0.985
M16
G05
G00X0.0961Y-1.5504
M15
G01X0.0724Y-1.5504
M16
G05
G00X0.0961Y-1.8906
M15
G01X0.0724Y-1.8906
M16
G05
G00X0.2705Y-1.5504
M15
G01X0.2272Y-1.5504
M16
G05
G00X0.2705Y-1.8906
M15
G01X0.2272Y-1.8906
M16
G05
G00X0.3004Y-0.6449
M15
G01X0.261Y-0.6449
M16
G05
G00X0.3004Y-0.985
M15
G01X0.261Y-0.985
M16
G05
M30
